<?xml version="1.0" encoding="UTF-8"?>
<svg id="Layer_2" data-name="Layer 2" xmlns="http://www.w3.org/2000/svg" viewBox="0 0 316.96 162.18">
  <defs>
    <style>
      .cls-1 {
        fill: #6695c8;
      }
    </style>
  </defs>
  <g id="Layer_1-2" data-name="Layer 1">
    <g>
      <path class="cls-1" d="M212.44,56.19c1.94-.92,3.71-2.22,5.64-3.17,2.16-1.07,9.81-4.49,10.41-.29.44,3.07-5.05,8.15-4.33,11.67.41.86,3.55.73,4.45.68,5.42-.28,11.09-2.03,16.43-2.39,5.51-.37,7.41,3.8,5.52,8.6-3.16,8-10.22,10.85-17.71,13.77-9.01,3.51-17.05,4.65-26.64,5.52-19.52,1.75-40.72-4.69-59.99-7.58-17.06-2.56-41.08-4.19-53.25,10.65-3.85,4.69-6.12,16.78.66,19.88,6.08,2.78,9.85-4.67,14.6-7.35,4.78-2.69,11.49-2.73,11.86,4.15.47,8.81-5.88,13.15-11.04,18.91-3.34,3.73-6.38,7.75-9.05,11.99s-4.66,7.27-4.56,12.74c.01.57.51,4.18,1.12,4.18,1.99-1.94,4.16-3.71,6.16-5.64,1.38-1.33,3.99-3.63,5.04-5.05.8-1.08,1.53-2.92,2.32-4.18,2.22-3.52,4.74-7.25,7.12-10.67,1-1.44,4.33-6.4,5.63-7.02,1.01-.48,1.76.05,1.69,1.15-.11,1.54-4.02,7.83-5.06,9.5-2.95,4.75-6.21,8.87-9.99,12.93-.53,4.32,2.62,7.76,7.05,6.19,3.62-1.28,9.57-9.94,11.67-13.31,3.23-5.18,6.05-10.4,9.47-15.5,4.02-5.99,10.5-16.93,18.61-16.99,1.76-.01,3.13,1.21,4.09,2.58.43.62,1.15,1.66.34,2.21-1.92-1.14-4.81-.3-6.69.66-12.15,6.19-16.52,16.46-23.25,27.38-3.64,5.9-10.16,15.38-17.21,17.17-5.73,1.45-5.45-4.36-6.38-8.26-1.95,1.85-3.87,3.79-5.9,5.56-1.77,1.54-5.77,5.14-8.04,5.31-2.58.19-2.16-2.01-2.06-3.94.6-10.9,9.68-23.52,16.85-31.39,4.2-4.62,9.24-8.09,9.67-14.97.44-7.07-5.6-5.6-9.63-2.79-6.29,4.39-10.27,11.92-19.45,7.59-9.75-4.6-5.59-17.59.28-23.68,3.83-3.98,13.4-9.11,18.71-10.71,9.21-2.76,17.67-2.4,27.11-2.3,7.13.07,20.05-3.54,25.66-8.05,6.43-5.17,7.82-11.59,10.79-18.81.67-1.62,1.46-3.18,2.13-4.8-5.72,5.37-11.19,11.94-18.41,15.37-3.36,1.59-10.4,3.88-8.18-2.71,2.74-8.16,9.81-12.33,13.46-19.05,3-5.53-2.5-4.74-5.91-3.34-4.68,1.93-14.1,11.54-17.55,15.63-2.61,3.1-5.16,7.33-8.4,9.73-2.29,1.7-5.24,2.49-7.69.53s-2.62-3.53-2.4-6.51l.95-4.53c-5.22,4.73-10.28,9.73-16.29,13.48-1.37.85-2.91,1.81-4.38,2.46-8.27,3.64-8.41-2.33-5.79-8.36,3.06-7.04,9.09-12.81,13.5-18.99-.27-2.42-4.02-1.52-5.68-1.07-2.67.72-5.44,3.91-7.37,5.97-5.57,5.97-11.82,14.22-15.74,21.38-.64,1.17-2.8,6.21-3.68,6.59-2.19.94-2.65-2.73-2.74-4.09-.72-10.48,6.58-24.87,12.77-33.09,1.89-2.52,4.29-4.91,6.02-7.49.75-1.12,1.66-2.41,1.57-3.82-5.3.44-10.29,4.21-13.68,8.13-2.83,3.28-4.51,7.22-6.08,11.2l-.43-.1c-.23-1.64,1.71-5.98,2.54-7.54,2.89-5.4,9.34-11.41,15.42-12.8,5.5-1.26,3.89,2.83,1.99,5.75-3.26,5.02-7.26,8.8-10.29,14.34-3.45,6.31-6.35,13.06-7.61,20.19.12.1,1.37-.73,1.59-.89,1.31-.89,4.12-2.99,5.15-4.09,1.67-1.78,3.53-4.92,5.17-6.98,4.51-5.68,12.45-14.92,19.23-17.55,5.48-2.13,6.61,1.6,4.24,5.95-3.76,6.89-14.4,15.79-15.19,23.81-.09.95-.31,2.5.96,2.59,3.08.22,11.44-5.78,14-7.82,9.13-7.28,17.59-15.7,25.75-24.03.57-.58,1.66-2.38,2.61-2.12l.44.44c.09.36-.37.94-.59,1.23-2.98,4.02-7.65,7.6-10.94,11.47-2.69,3.16-2.98,6.47-2.66,10.53.13,1.57,1.3,5.78,3.59,4.43,2.8-1.64,6.82-7.83,9.16-10.51,3.78-4.34,13.35-13.74,18.6-15.44,2.74-.89,8.52-1.81,8.69,2.54.21,5.19-8.11,10.64-9.71,15.43-.77,2.3-.17,5,1.59,6.72,3.04-1.75,5.85-3.92,8.47-6.25,4.39-3.9,10.34-9.84,14.02-14.37.64-.78,1.12-2.45,2.39-1.87.74.33.49,1.04.26,1.62-1.31,3.25-3.85,6.95-5.42,10.32-2.7,5.82-4.25,11.95-7.47,17.51-3.22,5.55-7.26,10.84-12.86,14.17.15.26.37.2.58.27,3.86,1.14,8.71,1.93,12.72,2.67,9.64,1.79,19.91,3.46,29.71,3.82,4.99.18,10.98-.46,16.06-1.05,6.89-.79,13.04-2.62,19.33-5.48,4.1-1.86,10.27-4.63,13.2-8.01,1.58-1.82,1.82-2.68.66-4.94-3.19-6.22-13.05-2.64-18.45-2.41-5.37.23-7.61-1.54-5.37-6.91.61-1.47,3.98-6.49,3.75-7.52-.1-.19-.43-.25-.63-.27-3.85-.44-13.88,6.22-17.23,8.57-3.36,2.36-6.55,4.92-9.4,7.88l-.98.13c-.35-.36,1.24-3.49,1.46-4.1.05-.15.2-.45,0-.52-2.97,1.57-7.37,6.22-10.62,6.66-6.75.9-2.54-7.9-.58-10.59-.16-.15-3.24,2.02-3.65,2.25-.8.45-2.61,1.44-3.45,1.51-3.66.31-2.83-4.18-1.94-6.39,2.16-5.4,10.12-10.89,15.54-12.51.75-.22,4.51-1.23,4.94-.58l-.15.76c-2.7.47-5.28,1.47-7.7,2.73-1.92,1-4.93,3.02-6.23,4.72-.97,1.28-3.68,6.33-2.69,7.75.31.27.88-.03,1.2-.18,1.93-.9,7.66-5.13,9.24-6.67,1.49-1.46,2.78-3.46,4.3-4.94l.72-.24c1.82.28-.3,3.02-.83,3.72-1.55,2.06-3.58,3.25-5.2,5.07-2.59,2.9-5.3,7.45-5.4,11.37.49.99,2.96-.21,3.67-.61,3.61-2.05,7.11-5.57,10.79-7.68,3.27-7.24,6.94-13.8,11.56-20.26,4.07-5.68,13.98-20.17,22.01-18.79,3.07.53,2.27,6.03,1.36,8.12-1.77,4.05-9.54,13.11-12.77,16.65-3.39,3.7-7.36,6.77-11.38,9.75ZM204.4,58.93l7.75-5.16c6.96-4.88,12.91-11.47,18.08-18.19,2.55-3.32,4.56-6.9,4.11-11.28-.09-.92-.09-1.36-1.09-1.27-6.76.57-14.7,12.51-18.38,17.72-4.05,5.73-7.8,11.66-10.47,18.19Z"/>
      <path class="cls-1" d="M158.56,148.74c-2.66,2.12-5.32,4.73-8.44,6.19-.48.23-1.87.82-2.33.92-3.87.83-2.19-4.53-1.89-6.6-2.2,1.82-4.47,3.86-6.96,5.27-.42.23-2.47,1.37-2.79,1.06-.02-.24-.02-.45.09-.68.19-.4,5.2-3.8,6.07-4.54,1.12-.94,2.46-2.16,3.42-3.25,1.83-2.06,2.37-4.09,3.67-6.42,1.12-2.01,2.73-4.48,4.2-6.23,1.04-1.24,2.46-2.68,2.83-.09l-6.75,10.54c-1.13,2.73-2.24,5.59-2.08,8.61.08.1,2.01-.54,2.32-.62.57-.15,1.04-.59,1.27-.67.55-.19,4.27-3.46,4.96-4.09s2.5-2.28,2.91-2.91c.49-.76.86-3.22,1.19-4.28,2.87-9.24,8.38-21.89,13.62-30,1.25-1.93,5.2-8.06,7.84-4.96,1.99,2.33.15,7.73-.8,10.3-4.16,11.19-11.29,21.68-19.84,29.94-.38,1.1-.89,7.58.14,7.82,4.73-2.84,8.3-7.23,12.13-11.12,2.96-9.74,7.54-18.56,12.85-27.18,2.2-3.57,7.91-12.99,12.17-13.66,6.2-.98,3.07,7.73,1.78,10.68-4.86,11.16-13.11,18.74-21.25,27.34-.86.91-3.16,3.13-3.66,4.04-.73,1.32-1.96,6.78-1.97,8.31-.01,4.11,3.24,1.25,4.93-.04,7.42-5.66,14.85-14.46,20.07-22.18.65-.96,1.44-3.48,2.93-2.53.97.62-.21,2.76-.54,3.55-1.71,4.07-4.49,8.24-5.12,12.67-.81,5.7,1.91,4.24,5.14,1.89,4.54-3.29,7.75-8.19,11.66-12.12,2.77-2.79,7.66-6.3,11.73-4.37,2.16,1.03,3.89,5.76,3.57,8.03-.25,1.76-2.17,1.46-2.37.18-.33-2.16.17-5.99-3.15-5.7-3,.27-10.56,4.15-11.52,7.12-.56,1.75-.83,7.34,1.62,7.71,1.78.27,5.54-3.24,6.61-4.6.82-1.04,4.02-6.38,4.84-6.63,2.4-.71-.15,3.17-.53,3.76-1.5,2.31-4.24,4.77-3.34,7.83.5.43,3.44-1.32,4.01-1.69,2.33-1.51,4.8-3.81,6.48-6.01,3.23-4.21,3.91-5.89,9.51-7.43,1.32-.36,4.24-1.11,5.36-.23,2.33,1.31-2.38,6.86-2.11,7.16,2.45-1.94,4.9-4.25,8.04-5.05,4.05-1.02,2.82,1.57,1.58,3.8-.08.15-.38.43-.12.56,3.01-2.71,6.69-6.42,11.12-5.98,2.99.3,2.55,2.32,1.42,4.33-1.08,1.93-2.68,3.71-3.73,5.68-.05.3,0,.26.26.26,1.46,0,3.72-2.1,4.79-3.08,2.73-2.52,5.6-5.67,8.21-8.38,2.45-2.54,4.99-5.9,7.53-8.21,1.39-1.27,3.45-2.27,4.96-3.42.42-.13.27.85.25,1.11-.44,4.78-4.32,12.17-7.96,15.31-.78.68-2.35,1.47-2.91,2.06-.2.21-.02.18.18.18,1.32-.04,3.67-.64,5.05-.94,8.13-1.77,16.72-3.97,23.95-8.21,2.57-1.51,6.97-7.07,6.42-10.19-.36-2.07-3.56-3.68-5.49-3.76-.93-.04-1.88.3-2.9.17-.24-.03-.49-.09-.25-.34,6.24-2.96,15.95-1.81,12.96,7.4-2.04,6.28-13.14,9.82-18.9,12.06-7.94,3.07-16.31,6.14-24.92,6.55-1.37.07-3.19.15-4.46-.3-1.84,1.85-4.72,4.73-7.62,3.98-.55-.14-1.1-.63-1.19-1.22-.31-2.19,3-5.48,3.76-7.52,0-.64-1.81-.45-2.29-.4-5.13.54-9.63,7.23-13.18,10.59-1.01.96-2.78,2.15-2.72-.14l5.75-8.12-.03-.56c-1.16-.73-4.36,1.47-5.29,2.25-3.07,2.54-5.68,6.1-8.82,8.63-3.51.74-.37-3.32.45-4.51,1.86-2.71,5.55-6.71,6.56-9.69.1-.29.24-.55-.18-.52-3.15.21-7.77,2.11-9.83,4.54-3.33,3.91-4.67,6.96-9.43,9.9-2.78,1.72-6.24,3.09-6.57-1.61-2.21,1.78-5.39,4.37-8.41,2.94-1.93-.92-2.08-3.21-1.93-5.08.04-.55.41-1.1.26-1.63-2.09,2.23-4.33,4.59-6.94,6.23-1.46.92-2.96,1.85-4.78,1.39-2.41-.61-2.35-3.67-2.2-5.63l1.09-5.07c-4.97,5.48-9.92,11.69-16.01,15.97-1.59,1.11-2.97,2.24-5.04,1.65-3.68-1.06-2.06-6.35-1.62-9.07-2.81,2.48-5.41,5.72-8.6,7.74-1.48.94-3.08,1.45-4.09-.43-.1-.19-.65-1.81-.65-1.92v-4.36ZM177.03,138.82c8.05-7.9,16.52-16.74,21.07-27.25.52-1.21,1.6-3.06.23-4.05-1.07-.78-4.25.48-5.14,1.36-2.14,2.11-5.48,8.34-7.12,11.18-3.48,6-6.85,12.15-9.04,18.76ZM162.15,141.9c5.31-5.03,9.34-11.18,12.75-17.62.85-1.6,1.76-3.37,2.51-5.02.98-2.15,3.29-6.95,2.23-9.13-.62-1.28-2.4-.63-3.19.13-.86.83-2.45,3.92-3.1,5.12-1.33,2.46-2.53,5.05-3.7,7.59-2.84,6.14-5.52,12.46-7.49,18.93ZM270.26,138.3c6.93-1.86,11.51-7.59,13.68-14.2l-13.68,14.2Z"/>
      <path class="cls-1" d="M56.1,34.32c.66,2.62,1.8,5.6,2.02,8.3.1,1.2-.11,2.47-1.65,1.83-.68-.28-.8-2.87-.98-3.65-.12-.52-1.12-4.96-1.38-4.96l-19.07,12.06c3.44,2.65,7.24,4.84,10.76,7.37,1.17.84,2.25,1.96,3.48,2.85.97.7,3.26,1.4,2.6,2.87-.71,1.59-3.78-1.08-4.61-1.71-.95-.73-1.82-1.67-2.77-2.36-3.6-2.62-7.61-4.76-11.12-7.53-.19-.14-.38-.21-.62-.17-.38.06-3.67,2.24-4.39,2.63-8.18,4.48-15.62,8.4-22.76,14.53-1.13.97-3.22,3.43-4.53,3.87-.31.1-.46.07-.77-.02-.06-.25.06-.41.16-.61.43-.88,3.39-3.59,4.29-4.44,5.2-4.88,9.92-9.28,14.07-15.18,1.67-2.38,3.24-4.88,4.74-7.38-.06-.26-3.92-2.54-4.49-2.87-3.46-2-9.39-5.42-13.02-6.65-1.89-.64-4.25-.84-6-1.87l-.06-.57,34.71-9.26c.89-2.71,1.41-5.52,1.37-8.39-.04-3.41-.58-7.07-1.42-10.38-.22-.85-.89-1.61-.13-2.44,1.75-1.03,6.6,2.92,7.79,4.19,2.12,2.26,3.84,4.63,5.3,7.35,1.26,2.36,2.18,4.94,3.61,7.17,3.88-.58,7.7-1.6,11.61-2.03,2.83-.32,5.72-.3,8.55-.52,2.6-.2,5.5-.78,8.04-.86,1.79-.06,2.36,1.29.93,2.48-1.22,1.01-3.32,2.02-4.73,2.97-6.54,4.43-12.89,9.14-19.54,13.4ZM37.28,20.78l11.46-1.79c-2.01-3.51-3.13-7.61-6.07-10.52-.59-.58-4.18-3.43-4.87-2.74.54,5.02,1,10.15-.51,15.05ZM70.97,20.1c-2.07-.38-4.11-1.12-6.24-1.03-1.27.06-2.96.35-4.25.54-2.84.43-5.62,1.27-8.5,1.51l3.42,10.95,13.67-9.34c.41-.28,2.24-2.24,1.9-2.64ZM49.74,21.49c-4.43.17-8.85.72-13.11,1.89-1.33,5.3-4.24,9.94-7.15,14.49-.61.96-2.37,3.02-2.68,3.83-.06.16-.19.28-.06.46l6.27,4.36.54.06,19.82-13.05-3.63-12.04ZM34.02,24.21l-19.19,5.01c-.85.2-4.22,3.53-3.72,4.22,4.79,2.07,9.38,4.65,13.85,7.36,3.2-5.41,7.36-10.44,9.07-16.59ZM31.11,48.15c.18-.26-.75-.83-.97-.99-1.52-1.15-3.24-2.23-4.85-3.21-1.11,2.03-3.17,3.91-4.19,5.91-.79,1.54-1.21,3.46-1.62,5.14l11.63-6.84Z"/>
      <path class="cls-1" d="M292.1,14.77c-.85,2.65-1.14,10.33,1.16,12.19.42.34,1.02.5,1.49.92.17.15.39.14.21.43-3.83.78-7.27,2.57-10.42,4.84l-5,4.16c-.14-1.77.44-3.49.47-5.28s-.5-5.11-1.66-6.43c-.62-.7-1.87-1.15-2.56-1.86l.03-.36c4.63-.26,8.54-2.55,12.13-5.33,1.23-.95,2.41-2.22,3.61-3.15.2-.16.27-.28.54-.11ZM291.92,27.64c-2.14-1.88-2.2-5.88-1.89-8.52.05-.44.23-.86.28-1.33.02-.18.16-.39-.08-.42-2.3,2.84-5.68,4.65-8.98,6.09l-2.87.85c3.23,2.13,3.38,6.84,2.69,10.28,2.62-2.49,5.46-4.63,8.79-6.07.54-.24,1.32-.36,1.83-.58.18-.08.19-.06.22-.29Z"/>
      <path class="cls-1" d="M24.59,102.7c-1.7,3.91-2.19,7.16-.94,11.29.23.75,1.95,4.58,1.63,4.96-1.74-.74-2.79-2.38-4.29-3.49-2.11-1.56-4.05-2.38-6.74-2.15-.86.07-1.52.6-2.44.21-1.14-.48.1-1.22.5-1.98,1.12-2.1,1.6-5.65,1.06-7.96-.31-1.34-1.98-3.04-.05-3.71.49.11.86,1.23,1.21,1.69,1.56,2.07,3.14,3.01,5.83,2.64,1.5-.21,2.74-1.27,4.23-1.49ZM14.84,104.23v3.51l-1.03,3.68h3.34c.46,0,2.32.84,2.83,1.11.78.42,1.44,1.03,2.22,1.46-.62-2.85-.86-5.81-.51-8.72-2.36.92-4.92.69-6.84-1.03Z"/>
      <path class="cls-1" d="M294.08,96.18c.26.15,1.85,4.59,2.34,5.44.41.71,1.39,2.26,2.25,2.34.66.06,3.78-.64,4-.46,0,.63-.83.63-1.25.88-1.36.8-3.06,2.59-3.62,4.08-.96,2.56-.46,5.73-.77,8.38-.2-.02-.37.09-.53-.11-.59-.73-.82-3.41-1.27-4.51-1.34-3.28-4.94-3.32-7.95-2.91-.07-.38.25-.46.5-.61.85-.49,2.48-.77,3.18-1.27,1.24-.88,2.71-5.56,2.82-7.1.11-1.42-.25-2.79-.18-4.2.16.01.33-.05.48.04ZM298.73,105.22c-.82-.11-1.42-.42-2.03-.96l-1.9-2.8c-.27,2.45-1.37,4.78-2.91,6.67l2.45.89,1.65,1.68c.16-1.56.56-3.11,1.55-4.36l1.19-1.11Z"/>
      <path class="cls-1" d="M139.94,25.89c-.19-.12-.55-1.6-.55-1.93.03-1.72,1.79-6.33,3.25-7.37,1.1-.79,2.15-.13,2.17,1.17.03,1.62-2.15,7.71-3.82,8.12-.23.06-.88.11-1.05,0Z"/>
      <path class="cls-1" d="M206.24,117.29c.47-.09,1.32.62,1.5,1,.64,1.4-1.82,6.19-3.38,5.96-2.58-.39.44-6.68,1.88-6.96Z"/>
      <path class="cls-1" d="M57.24,47.15c.77-.22,1.17,1.06,1.21,1.64.06,1.05-.05,3.12-.12,4.24-.05.74-.48,4.33-1.03,4.61-.35.18-.93.13-1.12-.26-.37-.75.34-4.17.43-5.22.12-1.41-.09-3.01.18-4.44.05-.26.19-.5.46-.58Z"/>
      <path class="cls-1" d="M158.35,121.24c.83.83-.67,5.34-2.14,5.58-2.29.36-.44-5.88,1.56-5.78.16,0,.47.1.58.21Z"/>
      <path class="cls-1" d="M53.65,62.21c.7-.1,3.92,1.78,2.36,2.72-1.41.85-4.34-2.44-2.36-2.72Z"/>
    </g>
  </g>
</svg>